<svg xmlns="http://www.w3.org/2000/svg" viewBox="0 0 1189.44 374.56"><defs><style>.cls-1{fill:lime;}.cls-2{fill:aqua;}.cls-3{fill:blue;}.cls-4{fill:#ff0;}.cls-5{fill:#9164ff;}.cls-6{fill:red;}</style></defs><title>logo</title><g id="Layer_2" data-name="Layer 2"><g id="Layer_2-2" data-name="Layer 2"><path class="cls-1" d="M847.21,325.63c-76.29,0-138.35-62.06-138.35-138.35S770.92,48.92,847.21,48.92,985.57,111,985.57,187.28,923.5,325.63,847.21,325.63Zm0-275c-75.36,0-136.67,61.31-136.67,136.67S771.85,324,847.21,324s136.68-61.31,136.68-136.67S922.58,50.61,847.21,50.61Z"/><path class="cls-2" d="M1051.08,325.63c-76.29,0-138.35-62.06-138.35-138.35S974.79,48.92,1051.08,48.92,1189.44,111,1189.44,187.28,1127.37,325.63,1051.08,325.63Zm0-275c-75.36,0-136.67,61.31-136.67,136.67S975.72,324,1051.08,324s136.68-61.31,136.68-136.67S1126.45,50.61,1051.08,50.61Z"/><path class="cls-3" d="M342.23,325.63c-76.29,0-138.36-62.06-138.36-138.35S265.94,48.92,342.23,48.92,480.58,111,480.58,187.28,418.52,325.63,342.23,325.63Zm0-275c-75.37,0-136.68,61.31-136.68,136.67S266.86,324,342.23,324,478.9,262.64,478.9,187.28,417.59,50.61,342.23,50.61Z"/><path class="cls-4" d="M138.36,325.63C62.07,325.63,0,263.57,0,187.28S62.07,48.92,138.36,48.92,276.71,111,276.71,187.28,214.65,325.63,138.36,325.63Zm0-275C63,50.61,1.68,111.92,1.68,187.28S63,324,138.36,324,275,262.64,275,187.28,213.72,50.61,138.36,50.61Z"/><path class="cls-5" d="M159.43,227.85H117.29V146.7h42.14v13.6H130.88v20.07h22V194h-22v20.3h28.55Zm-40.62-1.52h39.1V215.78H129.36V192.44h22V181.89h-22V158.78h28.55V148.22h-39.1Z"/><path class="cls-5" d="M383.83,227.85H370.24V180.14l-20.89,47.71H334.72l-.2-.46-20.3-46.88v47.34h-13.6V146.7h13.89l27.55,63.85,27.88-63.85h13.89Zm-12.08-1.52h10.56V148.22H370.94l-28.89,66.15-28.54-66.15H302.14v78.11H312.7V173.18l23,53.15h12.64l23.4-53.45Z"/><path class="cls-5" d="M559.71,289.84H559v-32h.76a38.84,38.84,0,0,0,38.61-38.75V84.71h32.17V219.06a70.85,70.85,0,0,1-70.78,70.78Zm.76-30.52v29c18.69-.18,34.9-7,48.2-20.3a67,67,0,0,0,20.3-49V86.23H599.84V219.06a40.36,40.36,0,0,1-39.37,40.26Z"/><path class="cls-5" d="M880.58,227.85H866.93V209.27H841.07l-11.74,18.58h-16.1l51.32-81.15h16Zm-12.13-1.52h10.61V148.22H865.38L816,226.33h12.5l11.74-18.58h28.22Zm0-29.14H846.89l21.56-34Zm-18.8-1.52h17.28V168.39Z"/><path class="cls-5" d="M1092.69,227.85h-13.6V180.14l-20.89,47.71h-14.63l-.19-.46-20.31-46.88v47.34h-13.59V146.7h13.89l27.55,63.85,27.88-63.85h13.89Zm-12.08-1.52h10.56V148.22h-11.38l-28.88,66.15-28.54-66.15H1011v78.11h10.56V173.18l23,53.15h12.64l23.4-53.45Z"/><path class="cls-6" d="M594.72,374.56A187.28,187.28,0,0,1,462.29,54.85,187.28,187.28,0,0,1,727.15,319.7,186.06,186.06,0,0,1,594.72,374.56Zm0-372.28c-102,0-185,83-185,185s83,185,185,185,185-83,185-185S696.73,2.28,594.72,2.28Z"/></g></g></svg>