<svg xmlns="http://www.w3.org/2000/svg" viewBox="0 0 355.2 1080.67"><defs><style>.cls-1{fill:none;stroke:red;stroke-miterlimit:10;}</style></defs><title>fondo_1</title><g id="Layer_2" data-name="Layer 2"><g id="Layer_2-2" data-name="Layer 2"><path id="Lissajous_4-3-0" data-name="Lissajous 4-3-0" class="cls-1" d="M263.3,1080.21q-13.92-5.6-27.31-11.73c-39.09-17.89-88.51-45.51-131-86.38C53.86,932.92,22.15,873.57,15.39,805.55,7.72,728.34,32.5,643.23,89.71,554.09,137.1,480.23,198.49,416.47,250,369.26c32.82-30.09,68-59.3,104.9-87.41"/><path id="Lissajous_4-3-0-2" data-name="Lissajous 4-3-0" class="cls-1" d="M294.77.48q29.25,9.06,60.14,20"/><path id="Lissajous_4-3-0-3" data-name="Lissajous 4-3-0" class="cls-1" d="M354.86,362.3C306.71,326,261,290.5,219.28,256.43,147.8,198.05,83.65,140.2,43.49,90.77,20.88,62.93,1,31.7.51,6.55A44.13,44.13,0,0,1,.8.5"/><path id="Lissajous_4-3-0-4" data-name="Lissajous 4-3-0" class="cls-1" d="M300,.5a684.87,684.87,0,0,0-82.11,34.4C179.48,54.14,131.05,83.48,90,125.81,40.64,176.74,11,237.16,6.65,305.38,1.68,382.81,29.42,467,89.71,554.09c49.94,72.15,113.52,133.73,166.65,179.12,31.05,26.52,64.07,52.24,98.53,77"/><path id="Lissajous_4-3-0-5" data-name="Lissajous 4-3-0" class="cls-1" d="M354.86,741.81C310.41,777.93,268.21,813.19,229.61,847c-69.4,60.84-131.49,120.9-169.9,171.7-15.13,20-28.9,41.66-35.65,61.47"/></g></g></svg>